<svg id="Layer_1" enable-background="new 0 0 512 512" height="512" viewBox="0 0 512 512" width="512" xmlns="http://www.w3.org/2000/svg"><g><path d="m180.602 242.734h171.097v84.913h-171.097z" transform="matrix(.707 -.707 .707 .707 -123.707 271.727)"/><path d="m99.025 160.701h171.097v85.824h-171.097z" transform="matrix(.707 -.707 .707 .707 -89.916 190.15)"/><path d="m377.877 275.933-120.984 120.984 75.695 75.695h164.412c8.284 0 15-6.716 15-15s-6.716-15-15-15h-164.413l105.981-105.987z"/><path d="m72.526 254.976-51.984 51.976c-13.247 13.246-20.542 30.856-20.542 49.588 0 18.73 7.295 36.341 20.542 49.587l62.092 62.092c2.813 2.813 6.628 4.394 10.606 4.394h196.922z"/><path d="m459.781 315.411 31.666-31.667c13.246-13.246 20.541-30.856 20.541-49.588 0-18.73-7.295-36.341-20.541-49.587l-124.675-124.674c-27.343-27.343-71.832-27.343-99.175 0l-31.665 31.667z"/></g></svg>